<svg width="26" height="18" viewBox="0 0 26 18" fill="none" xmlns="http://www.w3.org/2000/svg">
<path d="M3 0.25H23C23.663 0.25 24.2989 0.513392 24.7678 0.982233C25.2366 1.45107 25.5 2.08696 25.5 2.75V15.25C25.5 15.913 25.2366 16.5489 24.7678 17.0178C24.2989 17.4866 23.663 17.75 23 17.75H3C2.33696 17.75 1.70107 17.4866 1.23223 17.0178C0.763392 16.5489 0.5 15.913 0.5 15.25V2.75C0.5 2.08696 0.763392 1.45107 1.23223 0.982233C1.70107 0.513392 2.33696 0.25 3 0.25V0.25ZM3 2.75V15.25H23V2.75H3ZM6.75 10.25H14.25C14.5815 10.25 14.8995 10.3817 15.1339 10.6161C15.3683 10.8505 15.5 11.1685 15.5 11.5C15.5 11.8315 15.3683 12.1495 15.1339 12.3839C14.8995 12.6183 14.5815 12.75 14.25 12.75H6.75C6.41848 12.75 6.10054 12.6183 5.86612 12.3839C5.6317 12.1495 5.5 11.8315 5.5 11.5C5.5 11.1685 5.6317 10.8505 5.86612 10.6161C6.10054 10.3817 6.41848 10.25 6.75 10.25ZM19.25 4H21.75V6.5H19.25V4Z" fill="#217C2C"/>
</svg>
