<svg width="30" height="30" viewBox="0 0 30 30" fill="none" xmlns="http://www.w3.org/2000/svg">
<path d="M26.666 10.9V22.2583L20.5327 16.125L19.3577 17.3L25.3827 23.3333H4.71602L10.5493 17.3L9.34935 16.1417L3.33268 22.3667V7.93333L13.691 18.2417C14.0033 18.5521 14.4257 18.7263 14.866 18.7263C15.3063 18.7263 15.7287 18.5521 16.041 18.2417L23.3993 10.925C22.8121 10.7717 22.2506 10.5331 21.7327 10.2167L14.8493 17.0583L4.42435 6.66667H19.0077C18.8466 6.12536 18.7597 5.56468 18.7493 5H3.33268C2.89065 5 2.46673 5.17559 2.15417 5.48816C1.84161 5.80072 1.66602 6.22464 1.66602 6.66667V23.3333C1.66602 23.7754 1.84161 24.1993 2.15417 24.5118C2.46673 24.8244 2.89065 25 3.33268 25H26.666C27.108 25 27.532 24.8244 27.8445 24.5118C28.1571 24.1993 28.3327 23.7754 28.3327 23.3333V10.1667C27.8162 10.4917 27.2546 10.7388 26.666 10.9Z" fill="#217C2C"/>
<path d="M25.0007 9.05001C27.3018 9.05001 29.1673 7.18453 29.1673 4.88334C29.1673 2.58215 27.3018 0.716675 25.0007 0.716675C22.6995 0.716675 20.834 2.58215 20.834 4.88334C20.834 7.18453 22.6995 9.05001 25.0007 9.05001Z" fill="#217C2C"/>
</svg>
