<svg width="23" height="27" viewBox="0 0 23 27" fill="none" xmlns="http://www.w3.org/2000/svg">
<path d="M16.25 14C12.8 14 10 16.8 10 20.25C10 23.7 12.8 26.5 16.25 26.5C19.7 26.5 22.5 23.7 22.5 20.25C22.5 16.8 19.7 14 16.25 14ZM18.3125 23.1875L15.625 20.5V16.5H16.875V19.9875L19.1875 22.3L18.3125 23.1875ZM20 2.75H13.525C13 1.3 11.625 0.25 10 0.25C8.375 0.25 7 1.3 6.475 2.75H0V26.5H10.1375C9.39797 25.7822 8.79635 24.9348 8.3625 24H2.5V5.25H5V9H15V5.25H17.5V11.6C18.3875 11.725 19.225 11.9875 20 12.35V2.75ZM10 5.25C9.3125 5.25 8.75 4.6875 8.75 4C8.75 3.3125 9.3125 2.75 10 2.75C10.6875 2.75 11.25 3.3125 11.25 4C11.25 4.6875 10.6875 5.25 10 5.25Z" fill="#217C2C"/>
</svg>
