<svg width="20" height="21" viewBox="0 0 20 21" fill="none" xmlns="http://www.w3.org/2000/svg">
<path d="M10 0.0769043C11.3261 0.0769043 12.5979 0.603688 13.5355 1.54137C14.4732 2.47905 15 3.75082 15 5.0769C15 6.40299 14.4732 7.67476 13.5355 8.61244C12.5979 9.55012 11.3261 10.0769 10 10.0769C8.67392 10.0769 7.40215 9.55012 6.46447 8.61244C5.52678 7.67476 5 6.40299 5 5.0769C5 3.75082 5.52678 2.47905 6.46447 1.54137C7.40215 0.603688 8.67392 0.0769043 10 0.0769043ZM10 12.5769C15.525 12.5769 20 14.8144 20 17.5769V20.0769H0V17.5769C0 14.8144 4.475 12.5769 10 12.5769Z" fill="white"/>
</svg>
