<svg width="30" height="30" viewBox="0 0 30 30" fill="none" xmlns="http://www.w3.org/2000/svg">
<path d="M26.2188 0.0975342H3.14625C1.40926 0.0975342 0 1.50679 0 3.24378V26.3163C0 28.0533 1.40926 29.4625 3.14625 29.4625H26.2188C27.9557 29.4625 29.365 28.0533 29.365 26.3163V3.24378C29.365 1.50679 27.9557 0.0975342 26.2188 0.0975342ZM23.0135 10.5064C23.0266 10.6899 23.0266 10.88 23.0266 11.0635C23.0266 16.7464 18.7005 23.2946 10.7956 23.2946C8.35723 23.2946 6.09586 22.5867 4.195 21.3675C4.5424 21.4068 4.87669 21.4199 5.23064 21.4199C7.24293 21.4199 9.09135 20.7382 10.5662 19.5846C8.67841 19.5453 7.09217 18.3065 6.54813 16.6022C7.21016 16.7006 7.80663 16.7006 8.48832 16.5236C6.52191 16.1237 5.04711 14.3933 5.04711 12.3024V12.2499C5.61737 12.5711 6.28595 12.7677 6.9873 12.794C6.39766 12.4018 5.91428 11.8697 5.58031 11.2452C5.24635 10.6207 5.07217 9.92327 5.07333 9.21511C5.07333 8.41543 5.28308 7.68131 5.6567 7.0455C7.77386 9.65427 10.9529 11.3585 14.5186 11.542C13.909 8.62518 16.0918 6.25894 18.7136 6.25894C19.9525 6.25894 21.0668 6.77676 21.8533 7.61576C22.8234 7.43223 23.7542 7.07172 24.5801 6.58012C24.2589 7.57643 23.5838 8.41543 22.6923 8.94636C23.5575 8.8546 24.3965 8.61207 25.17 8.27778C24.5866 9.13645 23.8525 9.89679 23.0135 10.5064Z" fill="white"/>
</svg>
